<mxfile host="app.diagrams.net" modified="2021-04-13T14:22:32.603Z" agent="5.0 (Windows)" etag="38G2Ven3FJ2VKMnAdlZL" version="14.5.10" type="github">
  <diagram id="UK1oplZtVHk2g0x_dDSM" name="Page-1">
    <mxGraphModel dx="2957" dy="688" grid="1" gridSize="10" guides="1" tooltips="1" connect="1" arrows="1" fold="1" page="1" pageScale="1" pageWidth="827" pageHeight="1169" math="0" shadow="0">
      <root>
        <mxCell id="0" />
        <mxCell id="1" parent="0" />
        <mxCell id="QV4RheT-G8MWhwkYlfRH-1" value="" style="rounded=0;whiteSpace=wrap;html=1;" parent="1" vertex="1">
          <mxGeometry x="-886" y="510" width="200" height="240" as="geometry" />
        </mxCell>
        <mxCell id="QV4RheT-G8MWhwkYlfRH-3" value="" style="rounded=0;whiteSpace=wrap;html=1;" parent="1" vertex="1">
          <mxGeometry x="-406" y="510" width="200" height="240" as="geometry" />
        </mxCell>
        <mxCell id="QV4RheT-G8MWhwkYlfRH-4" value="master" style="text;html=1;strokeColor=none;fillColor=none;align=center;verticalAlign=middle;whiteSpace=wrap;rounded=0;fontSize=24;" parent="1" vertex="1">
          <mxGeometry x="-828.5" y="480" width="60" height="20" as="geometry" />
        </mxCell>
        <mxCell id="QV4RheT-G8MWhwkYlfRH-5" value="slave" style="text;html=1;strokeColor=none;fillColor=none;align=center;verticalAlign=middle;whiteSpace=wrap;rounded=0;fontSize=24;" parent="1" vertex="1">
          <mxGeometry x="-336" y="480" width="60" height="20" as="geometry" />
        </mxCell>
        <mxCell id="QV4RheT-G8MWhwkYlfRH-6" value="192.168.186.128" style="text;html=1;strokeColor=none;fillColor=none;align=center;verticalAlign=middle;whiteSpace=wrap;rounded=0;fontSize=24;" parent="1" vertex="1">
          <mxGeometry x="-806" y="770" width="40" height="20" as="geometry" />
        </mxCell>
        <mxCell id="QV4RheT-G8MWhwkYlfRH-7" value="192.168.186.129" style="text;html=1;strokeColor=none;fillColor=none;align=center;verticalAlign=middle;whiteSpace=wrap;rounded=0;fontSize=24;" parent="1" vertex="1">
          <mxGeometry x="-336" y="770" width="40" height="20" as="geometry" />
        </mxCell>
        <mxCell id="HNmdAQJy73FJYcCBfIxi-2" value="&lt;div&gt;linux版本：&lt;/div&gt;&lt;div&gt;CentOS Linux release 7.6.1810 (Core) &lt;/div&gt;" style="text;html=1;strokeColor=none;fillColor=none;align=center;verticalAlign=middle;whiteSpace=wrap;rounded=0;fontSize=20;" parent="1" vertex="1">
          <mxGeometry x="-956" y="845" width="340" height="20" as="geometry" />
        </mxCell>
        <mxCell id="HNmdAQJy73FJYcCBfIxi-4" value="&lt;div&gt;mysql版本：&lt;/div&gt;&lt;div&gt;mysql-5.7.33-linux-glibc2.12-x86_64&lt;/div&gt;" style="text;html=1;strokeColor=none;fillColor=none;align=center;verticalAlign=middle;whiteSpace=wrap;rounded=0;fontSize=20;" parent="1" vertex="1">
          <mxGeometry x="-1480" y="940" width="440" height="20" as="geometry" />
        </mxCell>
        <mxCell id="HNmdAQJy73FJYcCBfIxi-5" value="&lt;div&gt;linux版本：&lt;/div&gt;&lt;div&gt;CentOS Linux release 7.6.1810 (Core) &lt;/div&gt;" style="text;html=1;strokeColor=none;fillColor=none;align=center;verticalAlign=middle;whiteSpace=wrap;rounded=0;fontSize=20;" parent="1" vertex="1">
          <mxGeometry x="-486" y="835" width="340" height="20" as="geometry" />
        </mxCell>
        <mxCell id="HNmdAQJy73FJYcCBfIxi-6" value="&lt;div&gt;mysql版本：&lt;/div&gt;&lt;div&gt;mysql-5.7.33-linux-glibc2.12-x86_64&lt;/div&gt;" style="text;whiteSpace=wrap;html=1;fontSize=20;align=center;" parent="1" vertex="1">
          <mxGeometry x="-501" y="910" width="350" height="40" as="geometry" />
        </mxCell>
        <mxCell id="HNmdAQJy73FJYcCBfIxi-12" style="edgeStyle=orthogonalEdgeStyle;rounded=0;orthogonalLoop=1;jettySize=auto;html=1;exitX=1;exitY=0.5;exitDx=0;exitDy=0;fontSize=20;entryX=0;entryY=0.5;entryDx=0;entryDy=0;" parent="1" source="HNmdAQJy73FJYcCBfIxi-7" target="HNmdAQJy73FJYcCBfIxi-11" edge="1">
          <mxGeometry relative="1" as="geometry">
            <Array as="points">
              <mxPoint x="-726" y="700" />
              <mxPoint x="-726" y="680" />
              <mxPoint x="-556" y="680" />
              <mxPoint x="-556" y="555" />
            </Array>
          </mxGeometry>
        </mxCell>
        <mxCell id="HNmdAQJy73FJYcCBfIxi-7" value="binary log" style="text;html=1;strokeColor=#666666;fillColor=#f5f5f5;align=center;verticalAlign=middle;whiteSpace=wrap;rounded=0;fontSize=20;fontColor=#333333;" parent="1" vertex="1">
          <mxGeometry x="-818.5" y="690" width="105" height="20" as="geometry" />
        </mxCell>
        <mxCell id="HNmdAQJy73FJYcCBfIxi-9" style="edgeStyle=orthogonalEdgeStyle;rounded=0;orthogonalLoop=1;jettySize=auto;html=1;exitX=0.5;exitY=1;exitDx=0;exitDy=0;entryX=0.5;entryY=0;entryDx=0;entryDy=0;fontSize=20;" parent="1" source="HNmdAQJy73FJYcCBfIxi-8" target="HNmdAQJy73FJYcCBfIxi-7" edge="1">
          <mxGeometry relative="1" as="geometry" />
        </mxCell>
        <mxCell id="HNmdAQJy73FJYcCBfIxi-8" value="master" style="rounded=0;whiteSpace=wrap;html=1;fontSize=20;align=center;fillColor=#dae8fc;strokeColor=#6c8ebf;" parent="1" vertex="1">
          <mxGeometry x="-806" y="530" width="80" height="50" as="geometry" />
        </mxCell>
        <mxCell id="HNmdAQJy73FJYcCBfIxi-10" value="data change" style="text;html=1;strokeColor=none;fillColor=none;align=center;verticalAlign=middle;whiteSpace=wrap;rounded=0;fontSize=20;" parent="1" vertex="1">
          <mxGeometry x="-818.5" y="620" width="40" height="20" as="geometry" />
        </mxCell>
        <mxCell id="HNmdAQJy73FJYcCBfIxi-13" style="edgeStyle=orthogonalEdgeStyle;rounded=0;orthogonalLoop=1;jettySize=auto;html=1;exitX=0;exitY=0.75;exitDx=0;exitDy=0;entryX=1;entryY=0.75;entryDx=0;entryDy=0;fontSize=20;" parent="1" source="HNmdAQJy73FJYcCBfIxi-11" target="HNmdAQJy73FJYcCBfIxi-7" edge="1">
          <mxGeometry relative="1" as="geometry">
            <Array as="points">
              <mxPoint x="-366" y="570" />
              <mxPoint x="-536" y="570" />
              <mxPoint x="-536" y="705" />
            </Array>
          </mxGeometry>
        </mxCell>
        <mxCell id="HNmdAQJy73FJYcCBfIxi-17" style="edgeStyle=orthogonalEdgeStyle;rounded=0;orthogonalLoop=1;jettySize=auto;html=1;exitX=0.5;exitY=1;exitDx=0;exitDy=0;entryX=0.361;entryY=0;entryDx=0;entryDy=0;entryPerimeter=0;fontSize=20;" parent="1" source="HNmdAQJy73FJYcCBfIxi-11" target="HNmdAQJy73FJYcCBfIxi-16" edge="1">
          <mxGeometry relative="1" as="geometry" />
        </mxCell>
        <mxCell id="HNmdAQJy73FJYcCBfIxi-11" value="I/O thread" style="rounded=0;whiteSpace=wrap;html=1;fontSize=20;align=center;fillColor=#dae8fc;strokeColor=#6c8ebf;" parent="1" vertex="1">
          <mxGeometry x="-366" y="530" width="50" height="50" as="geometry" />
        </mxCell>
        <mxCell id="HNmdAQJy73FJYcCBfIxi-14" value="read" style="text;html=1;strokeColor=none;fillColor=none;align=center;verticalAlign=middle;whiteSpace=wrap;rounded=0;fontSize=20;" parent="1" vertex="1">
          <mxGeometry x="-526" y="650" width="40" height="20" as="geometry" />
        </mxCell>
        <mxCell id="HNmdAQJy73FJYcCBfIxi-24" style="edgeStyle=orthogonalEdgeStyle;rounded=0;orthogonalLoop=1;jettySize=auto;html=1;exitX=0.75;exitY=0;exitDx=0;exitDy=0;entryX=0.9;entryY=0.5;entryDx=0;entryDy=0;entryPerimeter=0;fontSize=20;" parent="1" source="HNmdAQJy73FJYcCBfIxi-16" target="QV4RheT-G8MWhwkYlfRH-3" edge="1">
          <mxGeometry relative="1" as="geometry">
            <Array as="points">
              <mxPoint x="-299" y="690" />
              <mxPoint x="-226" y="690" />
            </Array>
          </mxGeometry>
        </mxCell>
        <mxCell id="HNmdAQJy73FJYcCBfIxi-16" value="relay log" style="rounded=0;whiteSpace=wrap;html=1;fontSize=20;align=center;fillColor=#f5f5f5;strokeColor=#666666;fontColor=#333333;" parent="1" vertex="1">
          <mxGeometry x="-381" y="710" width="110" height="30" as="geometry" />
        </mxCell>
        <mxCell id="HNmdAQJy73FJYcCBfIxi-18" value="write" style="text;html=1;strokeColor=none;fillColor=none;align=center;verticalAlign=middle;whiteSpace=wrap;rounded=0;fontSize=20;" parent="1" vertex="1">
          <mxGeometry x="-386" y="630" width="40" height="20" as="geometry" />
        </mxCell>
        <mxCell id="HNmdAQJy73FJYcCBfIxi-21" style="edgeStyle=orthogonalEdgeStyle;rounded=0;orthogonalLoop=1;jettySize=auto;html=1;exitX=0.25;exitY=1;exitDx=0;exitDy=0;fontSize=20;" parent="1" source="HNmdAQJy73FJYcCBfIxi-20" target="HNmdAQJy73FJYcCBfIxi-16" edge="1">
          <mxGeometry relative="1" as="geometry" />
        </mxCell>
        <mxCell id="HNmdAQJy73FJYcCBfIxi-20" value="SQL thread" style="rounded=0;whiteSpace=wrap;html=1;fontSize=20;align=center;fillColor=#f8cecc;strokeColor=#b85450;" parent="1" vertex="1">
          <mxGeometry x="-271" y="570" width="60" height="60" as="geometry" />
        </mxCell>
        <mxCell id="HNmdAQJy73FJYcCBfIxi-22" value="read" style="text;html=1;strokeColor=none;fillColor=none;align=center;verticalAlign=middle;whiteSpace=wrap;rounded=0;fontSize=20;" parent="1" vertex="1">
          <mxGeometry x="-311" y="640" width="40" height="20" as="geometry" />
        </mxCell>
        <mxCell id="HNmdAQJy73FJYcCBfIxi-25" value="replay" style="text;html=1;strokeColor=none;fillColor=none;align=center;verticalAlign=middle;whiteSpace=wrap;rounded=0;fontSize=20;" parent="1" vertex="1">
          <mxGeometry x="-266" y="700" width="50" height="20" as="geometry" />
        </mxCell>
        <mxCell id="z_bZBpSBI5ELGu94E9Kd-6" value="" style="rounded=0;whiteSpace=wrap;html=1;" vertex="1" parent="1">
          <mxGeometry x="-1360" y="510" width="200" height="240" as="geometry" />
        </mxCell>
        <mxCell id="z_bZBpSBI5ELGu94E9Kd-12" style="edgeStyle=orthogonalEdgeStyle;rounded=0;orthogonalLoop=1;jettySize=auto;html=1;exitX=1;exitY=0.5;exitDx=0;exitDy=0;entryX=0;entryY=0.5;entryDx=0;entryDy=0;" edge="1" parent="1" source="z_bZBpSBI5ELGu94E9Kd-7" target="HNmdAQJy73FJYcCBfIxi-7">
          <mxGeometry relative="1" as="geometry">
            <Array as="points">
              <mxPoint x="-1184" y="590" />
              <mxPoint x="-1040" y="590" />
              <mxPoint x="-1040" y="700" />
            </Array>
          </mxGeometry>
        </mxCell>
        <mxCell id="z_bZBpSBI5ELGu94E9Kd-23" style="edgeStyle=orthogonalEdgeStyle;rounded=0;orthogonalLoop=1;jettySize=auto;html=1;exitX=0.5;exitY=1;exitDx=0;exitDy=0;entryX=0.631;entryY=0.04;entryDx=0;entryDy=0;entryPerimeter=0;" edge="1" parent="1" source="z_bZBpSBI5ELGu94E9Kd-7" target="z_bZBpSBI5ELGu94E9Kd-9">
          <mxGeometry relative="1" as="geometry">
            <Array as="points">
              <mxPoint x="-1215" y="590" />
              <mxPoint x="-1215" y="650" />
            </Array>
          </mxGeometry>
        </mxCell>
        <mxCell id="z_bZBpSBI5ELGu94E9Kd-7" value="I/O thread" style="rounded=0;whiteSpace=wrap;html=1;fontSize=20;align=center;fillColor=#dae8fc;strokeColor=#6c8ebf;" vertex="1" parent="1">
          <mxGeometry x="-1234" y="540" width="50" height="50" as="geometry" />
        </mxCell>
        <mxCell id="z_bZBpSBI5ELGu94E9Kd-19" style="edgeStyle=orthogonalEdgeStyle;rounded=0;orthogonalLoop=1;jettySize=auto;html=1;exitX=0.75;exitY=1;exitDx=0;exitDy=0;entryX=0.381;entryY=0.035;entryDx=0;entryDy=0;entryPerimeter=0;" edge="1" parent="1" source="z_bZBpSBI5ELGu94E9Kd-8" target="z_bZBpSBI5ELGu94E9Kd-9">
          <mxGeometry relative="1" as="geometry" />
        </mxCell>
        <mxCell id="z_bZBpSBI5ELGu94E9Kd-8" value="SQL thread" style="rounded=0;whiteSpace=wrap;html=1;fontSize=20;align=center;fillColor=#f8cecc;strokeColor=#b85450;" vertex="1" parent="1">
          <mxGeometry x="-1354" y="570" width="60" height="60" as="geometry" />
        </mxCell>
        <mxCell id="z_bZBpSBI5ELGu94E9Kd-17" style="edgeStyle=orthogonalEdgeStyle;rounded=0;orthogonalLoop=1;jettySize=auto;html=1;exitX=0.25;exitY=0;exitDx=0;exitDy=0;entryX=0.5;entryY=1;entryDx=0;entryDy=0;" edge="1" parent="1" source="z_bZBpSBI5ELGu94E9Kd-9" target="z_bZBpSBI5ELGu94E9Kd-8">
          <mxGeometry relative="1" as="geometry">
            <Array as="points">
              <mxPoint x="-1256" y="690" />
              <mxPoint x="-1324" y="690" />
            </Array>
          </mxGeometry>
        </mxCell>
        <mxCell id="z_bZBpSBI5ELGu94E9Kd-9" value="relay log" style="rounded=0;whiteSpace=wrap;html=1;fontSize=20;align=center;fillColor=#f5f5f5;strokeColor=#666666;fontColor=#333333;" vertex="1" parent="1">
          <mxGeometry x="-1284" y="710" width="110" height="30" as="geometry" />
        </mxCell>
        <mxCell id="z_bZBpSBI5ELGu94E9Kd-10" value="replay" style="text;html=1;strokeColor=none;fillColor=none;align=center;verticalAlign=middle;whiteSpace=wrap;rounded=0;fontSize=20;" vertex="1" parent="1">
          <mxGeometry x="-1349" y="705" width="50" height="10" as="geometry" />
        </mxCell>
        <mxCell id="z_bZBpSBI5ELGu94E9Kd-13" value="read" style="text;html=1;strokeColor=none;fillColor=none;align=center;verticalAlign=middle;whiteSpace=wrap;rounded=0;fontSize=20;" vertex="1" parent="1">
          <mxGeometry x="-1090" y="645" width="40" height="20" as="geometry" />
        </mxCell>
        <mxCell id="z_bZBpSBI5ELGu94E9Kd-14" style="edgeStyle=orthogonalEdgeStyle;rounded=0;orthogonalLoop=1;jettySize=auto;html=1;exitX=0.25;exitY=0;exitDx=0;exitDy=0;entryX=1;entryY=0.5;entryDx=0;entryDy=0;" edge="1" parent="1" source="HNmdAQJy73FJYcCBfIxi-7" target="z_bZBpSBI5ELGu94E9Kd-7">
          <mxGeometry relative="1" as="geometry">
            <Array as="points">
              <mxPoint x="-792" y="680" />
              <mxPoint x="-1020" y="680" />
              <mxPoint x="-1020" y="565" />
              <mxPoint x="-1184" y="565" />
            </Array>
          </mxGeometry>
        </mxCell>
        <mxCell id="z_bZBpSBI5ELGu94E9Kd-20" value="read" style="text;html=1;strokeColor=none;fillColor=none;align=center;verticalAlign=middle;whiteSpace=wrap;rounded=0;fontSize=20;" vertex="1" parent="1">
          <mxGeometry x="-1299" y="640" width="40" height="20" as="geometry" />
        </mxCell>
        <mxCell id="z_bZBpSBI5ELGu94E9Kd-21" value="write" style="text;html=1;strokeColor=none;fillColor=none;align=center;verticalAlign=middle;whiteSpace=wrap;rounded=0;fontSize=20;" vertex="1" parent="1">
          <mxGeometry x="-1204" y="630" width="40" height="20" as="geometry" />
        </mxCell>
        <mxCell id="z_bZBpSBI5ELGu94E9Kd-24" value="delay" style="text;html=1;strokeColor=none;fillColor=none;align=center;verticalAlign=middle;whiteSpace=wrap;rounded=0;fontSize=24;" vertex="1" parent="1">
          <mxGeometry x="-1290" y="480" width="60" height="20" as="geometry" />
        </mxCell>
        <mxCell id="z_bZBpSBI5ELGu94E9Kd-27" value="192.168.186.133" style="text;html=1;strokeColor=none;fillColor=none;align=center;verticalAlign=middle;whiteSpace=wrap;rounded=0;fontSize=24;" vertex="1" parent="1">
          <mxGeometry x="-1280" y="770" width="40" height="20" as="geometry" />
        </mxCell>
        <mxCell id="z_bZBpSBI5ELGu94E9Kd-28" value="&lt;div&gt;linux版本：&lt;/div&gt;&lt;div&gt;CentOS Linux release 7.6.1810 (Core) &lt;/div&gt;" style="text;html=1;strokeColor=none;fillColor=none;align=center;verticalAlign=middle;whiteSpace=wrap;rounded=0;fontSize=20;" vertex="1" parent="1">
          <mxGeometry x="-1430" y="840" width="340" height="20" as="geometry" />
        </mxCell>
        <mxCell id="z_bZBpSBI5ELGu94E9Kd-30" value="&lt;div&gt;mysql版本：&lt;/div&gt;&lt;div&gt;mysql-5.7.33-linux-glibc2.12-x86_64&lt;/div&gt;" style="text;html=1;strokeColor=none;fillColor=none;align=center;verticalAlign=middle;whiteSpace=wrap;rounded=0;fontSize=20;" vertex="1" parent="1">
          <mxGeometry x="-996" y="940" width="440" height="20" as="geometry" />
        </mxCell>
      </root>
    </mxGraphModel>
  </diagram>
</mxfile>
